<?xml version="1.0" encoding="utf-8"?>
<!-- Generator: Adobe Illustrator 24.2.1, SVG Export Plug-In . SVG Version: 6.00 Build 0)  -->
<svg version="1.1" id="Layer_1" xmlns="http://www.w3.org/2000/svg" xmlns:xlink="http://www.w3.org/1999/xlink" x="0px" y="0px"
	 viewBox="0 0 313.2 65.8" style="enable-background:new 0 0 313.2 65.8;" xml:space="preserve">
<style type="text/css">
	.st0{fill:#FFFFFF;}
	.st1{opacity:0.5;fill:#FE0900;}
</style>
<g>
	<path class="st0" d="M0,18h11v4.9c2.4-4.2,6.1-6.1,10.6-6.1c4.6,0,8.5,2.1,10.4,6.4c2.7-4.4,6.8-6.4,11.6-6.4
		c7.2,0,12.5,4.5,12.5,14.1v25.8h-11V33.2c0-4.9-1.7-7.4-5.2-7.4c-3.8,0-6.4,3.8-6.4,8.8v22.3H22.6V33.2c0-4.9-1.7-7.4-5.3-7.4
		c-3.8,0-6.3,3.8-6.3,8.8v22.3H0V18z"/>
</g>
<g>
	<path class="st0" d="M59.3,37.4c0-13.2,7.5-20.6,19-20.6c11.7,0,19.1,7.9,19.1,20.6c0,13.1-7.6,20.5-19.1,20.5
		C66.6,57.9,59.3,50.1,59.3,37.4z M86.1,37.4c0-7.5-2.7-11.7-7.8-11.7c-5,0-7.7,4.1-7.7,11.7c0,7.5,2.7,11.6,7.7,11.6
		C83.4,49,86.1,45,86.1,37.4z"/>
</g>
<g>
	<path class="st0" d="M100.6,18h11v5.1c2.5-4.3,6.5-6.3,11.2-6.3c7.4,0,13,4.5,13,14.1v25.8h-11V33.2c0-4.9-1.9-7.4-6-7.4
		c-4.4,0-7.2,3.8-7.2,8.8v22.3h-11V18z"/>
</g>
<g>
	<path class="st0" d="M183.9,57.9c-12,0-19.4-7.8-19.4-20.5c0-13.2,7.5-20.6,19-20.6c11.6,0,18.9,7.7,18.9,20.4v2.4h-26.6
		c0.6,6.2,3.5,9.5,8.2,9.5c3.6,0,6-1.6,7.2-5.1h11.5C200.6,53,193.4,57.9,183.9,57.9z M175.9,33.3h15c-0.9-5-3.5-7.7-7.5-7.7
		C179.4,25.6,176.8,28.3,175.9,33.3z"/>
</g>
<g>
	<path class="st0" d="M143.7,26.4H139V18h4.8V9h11v9h7.9v8.4h-7.9v16.4c0,3.7,1,5.8,5.8,5.8h2.1v8.3c-1.2,0.6-3.7,1-6.6,1
		c-8.3,0-12.2-4.8-12.2-13.8V26.4z"/>
</g>
<path class="st1" d="M307.6,65.8H220c-3.1,0-5.7-2.5-5.7-5.7V5.7c0-3.1,2.5-5.7,5.7-5.7h87.6c3.1,0,5.7,2.5,5.7,5.7v54.5
	C313.2,63.3,310.7,65.8,307.6,65.8z"/>
<polygon class="st0" points="288,13.5 280.7,35.9 279.5,41.1 278.3,35.9 271.1,13.5 262,13.5 262,13.5 227.9,13.5 227.9,22.9 
	239.1,22.9 239.1,52.2 250.7,52.2 250.7,22.9 262,22.9 262,22.8 272.3,52.3 286.1,52.3 299.7,13.5 "/>
</svg>
