<?xml version="1.0" standalone="no"?>
<!DOCTYPE svg PUBLIC "-//W3C//DTD SVG 20010904//EN"
 "http://www.w3.org/TR/2001/REC-SVG-20010904/DTD/svg10.dtd">
<svg version="1.0" xmlns="http://www.w3.org/2000/svg"
 width="1040.000000pt" height="1040.000000pt" viewBox="0 0 1040.000000 1040.000000"
 preserveAspectRatio="xMidYMid meet">
<metadata>
Created by potrace 1.14, written by Peter Selinger 2001-2017
</metadata>
<g transform="translate(0.000000,1040.000000) scale(0.100000,-0.100000)"
fill="#000000" stroke="none">
<path d="M452 8630 c-109 -29 -187 -74 -272 -160 -87 -86 -131 -163 -160 -276
-20 -76 -20 -122 -20 -2999 0 -2877 0 -2923 20 -2999 29 -114 73 -190 160
-276 87 -87 165 -132 276 -160 76 -20 129 -20 4744 -20 4615 0 4668 0 4744 20
197 50 352 193 424 392 l27 73 3 2940 c3 3272 8 3009 -65 3158 -26 51 -58 94
-112 147 -87 87 -164 131 -277 160 -76 20 -128 20 -4748 19 -4566 0 -4673 -1
-4744 -19z m5543 -1482 c15 -46 184 -573 377 -1173 315 -980 357 -1117 411
-1357 34 -147 64 -265 66 -262 3 3 33 123 67 267 55 233 103 391 445 1435
l383 1172 613 0 c337 0 613 -1 613 -3 0 -3 -38 -111 -820 -2342 -282 -803
-532 -1520 -557 -1592 l-46 -133 -727 0 -728 0 -11 28 c-6 15 -247 707 -536
1537 -290 831 -530 1513 -534 1518 -4 4 -272 6 -597 5 l-589 -3 -3 -1537 -2
-1538 -610 0 -610 0 0 1540 0 1540 -585 0 -585 0 0 490 0 490 2270 0 2269 0
26 -82z"/>
</g>
</svg>
