<svg width="991" height="366" viewBox="0 0 991 366" fill="none" xmlns="http://www.w3.org/2000/svg">
<path d="M481.092 3.60007H508.228V336.912H536.388V362H481.092V3.60007Z" fill="#525252"/>
<path d="M553.212 362V3.60007H606.972V28.6881H580.348V165.392H604.412V190.992H580.348V336.912H609.532V362H553.212Z" fill="#525252"/>
<path d="M665.756 173.072H704.156V362H677.02V342.544H675.996C674.289 349.712 671.388 355.344 667.292 359.44C663.196 363.195 658.417 365.072 652.956 365.072C644.764 365.072 638.278 361.659 633.5 354.832C628.721 347.664 626.332 337.936 626.332 325.648V39.9521C626.332 27.6641 629.916 18.1067 637.084 11.2801C644.252 4.11207 653.809 0.528076 665.756 0.528076C677.702 0.528076 687.089 4.11207 693.916 11.2801C700.743 18.1067 704.156 27.6641 704.156 39.9521V139.28H677.02V43.5361C677.02 37.3921 675.996 32.9547 673.948 30.2241C672.241 27.1521 669.34 25.6161 665.244 25.6161C661.148 25.6161 658.076 27.1521 656.028 30.2241C654.321 32.9547 653.468 37.3921 653.468 43.5361V322.064C653.468 328.549 654.321 333.157 656.028 335.888C658.076 338.619 661.148 339.984 665.244 339.984C669.34 339.984 672.241 338.448 673.948 335.376C675.996 332.304 677.02 327.355 677.02 320.528V198.16H665.756V173.072Z" fill="#525252"/>
<path d="M717.784 362L740.824 3.60007H777.176L803.288 362H774.616L769.496 266.256H748.504L742.872 362H717.784ZM749.528 240.656H767.96L762.328 121.872L759.256 30.2241H758.232L755.16 121.872L749.528 240.656Z" fill="#525252"/>
<path d="M867.26 43.5361C867.26 37.3921 866.236 32.9547 864.188 30.2241C862.481 27.1521 859.58 25.6161 855.484 25.6161C851.388 25.6161 848.316 27.1521 846.268 30.2241C844.561 32.9547 843.708 37.3921 843.708 43.5361V322.064C843.708 328.549 844.561 333.157 846.268 335.888C848.316 338.619 851.388 339.984 855.484 339.984C859.58 339.984 862.481 338.619 864.188 335.888C866.236 333.157 867.26 328.549 867.26 322.064V210.448H894.396V325.648C894.396 337.936 890.982 347.664 884.156 354.832C877.329 361.659 867.942 365.072 855.996 365.072C844.049 365.072 834.492 361.659 827.324 354.832C820.156 347.664 816.572 337.936 816.572 325.648V39.9521C816.572 27.6641 820.156 18.1067 827.324 11.2801C834.492 4.11207 844.049 0.528076 855.996 0.528076C867.942 0.528076 877.329 4.11207 884.156 11.2801C890.982 18.1067 894.396 27.6641 894.396 39.9521V139.28H867.26V43.5361Z" fill="#525252"/>
<path d="M990.992 3.60007L962.32 242.192V362H935.184V242.192L907.024 3.60007H934.672L945.936 141.328L948.496 195.088H949.52L952.08 141.328L962.832 3.60007H990.992Z" fill="#525252"/>
<path d="M102.66 3.60007V362H87.2998V24.5921H86.2758L83.2038 75.2801L62.2118 362H40.7078L19.7158 75.2801L16.6438 24.5921H15.6198V362H0.259766V3.60007H27.9078L44.8038 238.608L50.9478 336.4H51.9718L58.1158 238.608L75.0118 3.60007H102.66Z" fill="#525252"/>
<path d="M128.38 329.232V36.3681C128.38 25.1041 131.281 16.4001 137.084 10.2561C143.228 3.77074 151.249 0.528076 161.148 0.528076C171.046 0.528076 178.897 3.77074 184.7 10.2561C190.844 16.4001 193.916 25.1041 193.916 36.3681V329.232C193.916 340.496 190.844 349.371 184.7 355.856C178.897 362 171.046 365.072 161.148 365.072C151.249 365.072 143.228 362 137.084 355.856C131.281 349.371 128.38 340.496 128.38 329.232ZM161.148 349.712C165.585 349.712 169.34 348.176 172.412 345.104C175.825 341.691 177.532 335.888 177.532 327.696V37.9041C177.532 29.7121 175.825 24.0801 172.412 21.0081C169.34 17.5947 165.585 15.8881 161.148 15.8881C156.369 15.8881 152.444 17.5947 149.372 21.0081C146.3 24.0801 144.764 29.7121 144.764 37.9041V327.696C144.764 335.888 146.3 341.691 149.372 345.104C152.444 348.176 156.369 349.712 161.148 349.712Z" fill="#525252"/>
<path d="M299.384 3.60007V362H274.296L233.336 27.1521H232.312L233.848 119.312L234.36 362H219V3.60007H243.576L285.048 339.984H286.072L284.536 249.872L283.512 3.60007H299.384Z" fill="#525252"/>
<path d="M388.608 3.60007V18.9601H361.984V362H345.6V18.9601H319.488V3.60007H388.608Z" fill="#525252"/>
<path d="M408.74 362V3.60007H453.796V18.9601H425.124V170.512H451.236V185.872H425.124V346.64H456.356V362H408.74Z" fill="#525252"/>
</svg>
