<svg width="1218" height="892" viewBox="0 0 1218 892" fill="none" xmlns="http://www.w3.org/2000/svg">
<path d="M1210.39 201.689L1041.46 244.39L1191.25 155.346C1185.45 144.865 1178.81 134.897 1171.44 125.538L1032.21 228.751L1135.97 89.8318C1126.63 82.3468 1116.65 75.6259 1106.15 69.7286L1016.47 218.127L1059.78 50.294C1048.46 47.023 1036.76 44.6474 1024.76 43.2388L998.31 214.175L974.849 43C962.66 44.3251 950.769 46.6291 939.259 49.8642L980.581 218.879L893.016 68.7975C882.209 74.7425 871.962 81.5709 862.358 89.1872L964.972 228.143L827.411 123.902C819.737 133.44 812.838 143.635 806.809 154.391L955.559 243.686L787.447 200.65C784.206 211.848 781.835 223.415 780.393 235.27L951.627 261.867L780 285.492C781.287 297.74 783.575 309.678 786.792 321.245L955.13 279.869L805.701 367.85C811.563 378.558 818.272 388.741 825.754 398.28L965.567 295.281L998.763 270.474L1031.37 294.911L1170.32 400.082C1177.99 390.508 1184.89 380.277 1190.91 369.498L1042.22 280.346L1210.01 323.812C1213.4 312.113 1215.86 300.008 1217.29 287.593L1044.95 262.38L1217.37 237.371C1216.01 225.146 1213.67 213.22 1210.39 201.677V201.689Z" fill="#FF5532"/>
<path d="M104.204 441.6V800H66.828L29.452 480H28.428L32.524 595.2L34.572 800H8.97203V441.6H46.86L83.724 760.576H84.748L81.164 650.496L79.116 441.6H104.204ZM126.092 800V441.6H179.852V466.688H153.228V603.392H177.292V628.992H153.228V774.912H182.412V800H126.092ZM273.452 441.6V466.688H247.852V800H220.716V466.688H195.116V441.6H273.452ZM426 441.6L403.472 800H367.12L356.88 536.832L355.344 477.44H354.32L352.272 536.832L342.544 800H305.68L283.664 441.6H311.824L320.528 681.728L323.6 773.376H324.624L327.696 681.728L336.4 441.6H372.752L381.456 681.728L385.04 773.376H386.064L389.136 681.728L397.84 441.6H426ZM439.952 763.648V477.952C439.952 465.664 443.536 456.107 450.704 449.28C457.872 442.112 467.429 438.528 479.376 438.528C491.323 438.528 500.709 442.112 507.536 449.28C514.363 456.107 517.776 465.664 517.776 477.952V763.648C517.776 775.936 514.363 785.664 507.536 792.832C500.709 799.659 491.323 803.072 479.376 803.072C467.429 803.072 457.872 799.659 450.704 792.832C443.536 785.664 439.952 775.936 439.952 763.648ZM478.864 777.984C482.96 777.984 485.861 776.619 487.568 773.888C489.616 771.157 490.64 766.549 490.64 760.064V481.536C490.64 475.051 489.616 470.443 487.568 467.712C485.861 464.981 482.96 463.616 478.864 463.616C474.768 463.616 471.696 464.981 469.648 467.712C467.941 470.443 467.088 475.051 467.088 481.536V760.064C467.088 766.549 467.941 771.157 469.648 773.888C471.696 776.619 474.768 777.984 478.864 777.984ZM589.76 647.424C589.76 641.621 588.907 637.525 587.2 635.136C585.493 632.405 582.421 631.04 577.984 631.04H566.208V800H539.072V441.6H578.496C591.467 441.6 601.024 444.843 607.168 451.328C613.653 457.813 616.896 467.712 616.896 481.024V587.008C616.896 595.883 615.701 602.539 613.312 606.976C610.923 611.413 606.656 614.997 600.512 617.728V618.752C606.656 621.483 610.923 625.067 613.312 629.504C615.701 633.941 616.896 640.597 616.896 649.472V755.456C616.896 758.869 616.896 762.453 616.896 766.208C616.896 769.963 617.067 773.717 617.408 777.472C617.749 780.885 618.261 784.469 618.944 788.224C619.627 791.637 620.651 795.221 622.016 798.976V800H594.88C593.173 792.491 591.808 785.152 590.784 777.984C590.101 770.816 589.76 763.136 589.76 754.944V647.424ZM589.76 483.584C589.76 477.44 588.736 473.173 586.688 470.784C584.981 468.053 582.08 466.688 577.984 466.688H566.208V605.44H577.984C582.08 605.44 584.981 604.416 586.688 602.368C588.736 599.979 589.76 595.541 589.76 589.056V483.584ZM719.088 441.6L689.904 606.464V607.488L719.088 800H692.464L666.352 621.312H665.328V800H638.192V441.6H665.328V600.32H666.352L691.952 441.6H719.088Z" fill="white"/>
<path d="M361.66 41.6V400H346.3V113.28V62.592H345.276L342.204 113.28L321.212 400H299.708L278.716 113.28L275.644 62.592H274.62V113.28V400H259.26V41.6H286.908L303.804 276.608L309.948 374.4H310.972L317.116 276.608L334.012 41.6H361.66ZM387.38 367.232V74.368C387.38 63.104 390.281 54.4 396.084 48.256C402.228 41.7707 410.249 38.528 420.148 38.528C430.047 38.528 437.897 41.7707 443.7 48.256C449.844 54.4 452.916 63.104 452.916 74.368V367.232C452.916 378.496 449.844 387.371 443.7 393.856C437.897 400 430.047 403.072 420.148 403.072C410.249 403.072 402.228 400 396.084 393.856C390.281 387.371 387.38 378.496 387.38 367.232ZM420.148 387.712C424.585 387.712 428.34 386.176 431.412 383.104C434.825 379.691 436.532 373.888 436.532 365.696V75.904C436.532 67.712 434.825 62.08 431.412 59.008C428.34 55.5946 424.585 53.888 420.148 53.888C415.369 53.888 411.444 55.5946 408.372 59.008C405.3 62.08 403.764 67.712 403.764 75.904V365.696C403.764 373.888 405.3 379.691 408.372 383.104C411.444 386.176 415.369 387.712 420.148 387.712ZM558.384 41.6V400H533.296L492.336 65.152H491.312L492.848 157.312L493.36 400H478V41.6H502.576L544.048 377.984H545.072L543.536 287.872L542.512 41.6H558.384ZM647.608 41.6V56.96H620.984V400H604.6V56.96H578.488V41.6H647.608ZM667.74 400V41.6H712.796V56.96H684.124V208.512H710.236V223.872H684.124V384.64H715.356V400H667.74Z" fill="white"/>
</svg>
