<svg width="1072" height="892" viewBox="0 0 1072 892" fill="none" xmlns="http://www.w3.org/2000/svg">
<path d="M1064.39 201.689L895.455 244.39L1045.25 155.346C1039.45 144.865 1032.81 134.897 1025.44 125.538L886.209 228.751L989.966 89.8318C980.625 82.3468 970.652 75.6259 960.155 69.7286L870.469 218.127L913.781 50.294C902.461 47.023 890.76 44.6474 878.762 43.2388L852.31 214.175L828.849 43C816.66 44.3251 804.769 46.6291 793.258 49.8642L834.58 218.879L747.016 68.7975C736.209 74.7425 725.961 81.5709 716.358 89.1872L818.971 228.143L681.411 123.902C673.737 133.44 666.838 143.635 660.809 154.391L809.558 243.686L641.447 200.65C638.206 211.848 635.835 223.415 634.393 235.27L805.626 261.867L634 285.492C635.287 297.74 637.575 309.678 640.792 321.245L809.13 279.869L659.701 367.85C665.563 378.558 672.272 388.741 679.754 398.28L819.567 295.281L852.763 270.474L885.375 294.911L1024.32 400.082C1031.99 390.508 1038.89 380.277 1044.91 369.498L896.218 280.346L1064.01 323.812C1067.4 312.113 1069.86 300.008 1071.29 287.593L898.946 262.38L1071.37 237.371C1070.01 225.146 1067.67 213.22 1064.39 201.677V201.689Z" fill="#FF5532"/>
<path d="M59.78 481.536C59.78 475.392 58.756 470.955 56.708 468.224C55.0014 465.152 52.1 463.616 48.004 463.616C43.908 463.616 40.836 465.152 38.788 468.224C37.0814 470.955 36.228 475.392 36.228 481.536V760.064C36.228 766.549 37.0814 771.157 38.788 773.888C40.836 776.619 43.908 777.984 48.004 777.984C52.1 777.984 55.0014 776.619 56.708 773.888C58.756 771.157 59.78 766.549 59.78 760.064V648.448H86.916V763.648C86.916 775.936 83.5027 785.664 76.676 792.832C69.8494 799.659 60.4627 803.072 48.516 803.072C36.5694 803.072 27.012 799.659 19.844 792.832C12.676 785.664 9.09202 775.936 9.09202 763.648V477.952C9.09202 465.664 12.676 456.107 19.844 449.28C27.012 442.112 36.5694 438.528 48.516 438.528C60.4627 438.528 69.8494 442.112 76.676 449.28C83.5027 456.107 86.916 465.664 86.916 477.952V577.28H59.78V481.536ZM135.348 441.6V800H108.212V441.6H135.348ZM252.064 441.6V800H214.688L177.312 480H176.288L180.384 595.2L182.432 800H156.832V441.6H194.72L231.584 760.576H232.608L229.024 650.496L226.976 441.6H252.064ZM273.952 800V441.6H327.712V466.688H301.088V603.392H325.152V628.992H301.088V774.912H330.272V800H273.952ZM473.536 441.6V800H447.936V544L448.96 473.856H447.936L443.328 544L426.432 800H394.176L376.768 544L372.672 473.856H371.648L372.672 544V800H347.072V441.6H391.104L406.464 668.928L409.536 751.872H410.56L414.144 668.928L428.992 441.6H473.536ZM488.024 800L511.064 441.6H547.416L573.528 800H544.856L539.736 704.256H518.744L513.112 800H488.024ZM519.768 678.656H538.2L532.568 559.872L529.496 468.224H528.472L525.4 559.872L519.768 678.656Z" fill="white"/>
<path d="M215.66 41.6V400H200.3V113.28V62.592H199.276L196.204 113.28L175.212 400H153.708L132.716 113.28L129.644 62.592H128.62V113.28V400H113.26V41.6H140.908L157.804 276.608L163.948 374.4H164.972L171.116 276.608L188.012 41.6H215.66ZM241.38 367.232V74.368C241.38 63.104 244.281 54.4 250.084 48.256C256.228 41.7707 264.249 38.528 274.148 38.528C284.047 38.528 291.897 41.7707 297.7 48.256C303.844 54.4 306.916 63.104 306.916 74.368V367.232C306.916 378.496 303.844 387.371 297.7 393.856C291.897 400 284.047 403.072 274.148 403.072C264.249 403.072 256.228 400 250.084 393.856C244.281 387.371 241.38 378.496 241.38 367.232ZM274.148 387.712C278.585 387.712 282.34 386.176 285.412 383.104C288.825 379.691 290.532 373.888 290.532 365.696V75.904C290.532 67.712 288.825 62.08 285.412 59.008C282.34 55.5946 278.585 53.888 274.148 53.888C269.369 53.888 265.444 55.5946 262.372 59.008C259.3 62.08 257.764 67.712 257.764 75.904V365.696C257.764 373.888 259.3 379.691 262.372 383.104C265.444 386.176 269.369 387.712 274.148 387.712ZM412.384 41.6V400H387.296L346.336 65.152H345.312L346.848 157.312L347.36 400H332V41.6H356.576L398.048 377.984H399.072L397.536 287.872L396.512 41.6H412.384ZM501.608 41.6V56.96H474.984V400H458.6V56.96H432.488V41.6H501.608ZM521.74 400V41.6H566.796V56.96H538.124V208.512H564.236V223.872H538.124V384.64H569.356V400H521.74Z" fill="white"/>
</svg>
