<svg width="1056" height="892" viewBox="0 0 1056 892" fill="none" xmlns="http://www.w3.org/2000/svg">
<path d="M1048.39 201.689L879.455 244.39L1029.25 155.346C1023.45 144.865 1016.81 134.897 1009.44 125.538L870.209 228.751L973.967 89.8318C964.625 82.3468 954.652 75.6259 944.155 69.7286L854.469 218.127L897.781 50.294C886.461 47.023 874.761 44.6474 862.762 43.2388L836.31 214.175L812.849 43C800.66 44.3251 788.769 46.6291 777.259 49.8642L818.581 218.879L731.016 68.7975C720.209 74.7425 709.962 81.5709 700.358 89.1872L802.972 228.143L665.411 123.902C657.737 133.44 650.838 143.635 644.809 154.391L793.559 243.686L625.447 200.65C622.206 211.848 619.835 223.415 618.393 235.27L789.627 261.867L618 285.492C619.287 297.74 621.575 309.678 624.792 321.245L793.13 279.869L643.701 367.85C649.563 378.558 656.272 388.741 663.754 398.28L803.567 295.281L836.763 270.474L869.375 294.911L1008.32 400.082C1015.99 390.508 1022.89 380.277 1028.91 369.498L880.218 280.346L1048.01 323.812C1051.4 312.113 1053.86 300.008 1055.29 287.593L882.946 262.38L1055.37 237.371C1054.01 225.146 1051.67 213.22 1048.39 201.677V201.689Z" fill="#FF5532"/>
<path d="M86.916 441.6V763.648C86.916 775.936 83.5027 785.664 76.676 792.832C69.8494 799.659 60.4627 803.072 48.516 803.072C36.5694 803.072 27.012 799.659 19.844 792.832C12.676 785.664 9.09202 775.936 9.09202 763.648V648.448H36.228V760.064C36.228 766.549 37.0814 771.157 38.788 773.888C40.836 776.619 43.908 777.984 48.004 777.984C52.1 777.984 55.0014 776.619 56.708 773.888C58.756 771.157 59.78 766.549 59.78 760.064V441.6H86.916ZM186.036 441.6V763.648C186.036 775.936 182.623 785.664 175.796 792.832C168.969 799.659 159.583 803.072 147.636 803.072C135.689 803.072 126.132 799.659 118.964 792.832C111.796 785.664 108.212 775.936 108.212 763.648V441.6H135.348V760.064C135.348 766.549 136.201 771.157 137.908 773.888C139.956 776.619 143.028 777.984 147.124 777.984C151.22 777.984 154.121 776.619 155.828 773.888C157.876 771.157 158.9 766.549 158.9 760.064V441.6H186.036ZM302.564 441.6V800H265.188L227.812 480H226.788L230.884 595.2L232.932 800H207.332V441.6H245.22L282.084 760.576H283.108L279.524 650.496L277.476 441.6H302.564ZM351.588 441.6V800H324.452V441.6H351.588ZM373.072 763.648V477.952C373.072 465.664 376.656 456.107 383.824 449.28C390.992 442.112 400.549 438.528 412.496 438.528C424.443 438.528 433.829 442.112 440.656 449.28C447.483 456.107 450.896 465.664 450.896 477.952V763.648C450.896 775.936 447.483 785.664 440.656 792.832C433.829 799.659 424.443 803.072 412.496 803.072C400.549 803.072 390.992 799.659 383.824 792.832C376.656 785.664 373.072 775.936 373.072 763.648ZM411.984 777.984C416.08 777.984 418.981 776.619 420.688 773.888C422.736 771.157 423.76 766.549 423.76 760.064V481.536C423.76 475.051 422.736 470.443 420.688 467.712C418.981 464.981 416.08 463.616 411.984 463.616C407.888 463.616 404.816 464.981 402.768 467.712C401.061 470.443 400.208 475.051 400.208 481.536V760.064C400.208 766.549 401.061 771.157 402.768 773.888C404.816 776.619 407.888 777.984 411.984 777.984ZM522.88 647.424C522.88 641.621 522.027 637.525 520.32 635.136C518.613 632.405 515.541 631.04 511.104 631.04H499.328V800H472.192V441.6H511.616C524.587 441.6 534.144 444.843 540.288 451.328C546.773 457.813 550.016 467.712 550.016 481.024V587.008C550.016 595.883 548.821 602.539 546.432 606.976C544.043 611.413 539.776 614.997 533.632 617.728V618.752C539.776 621.483 544.043 625.067 546.432 629.504C548.821 633.941 550.016 640.597 550.016 649.472V755.456C550.016 758.869 550.016 762.453 550.016 766.208C550.016 769.963 550.187 773.717 550.528 777.472C550.869 780.885 551.381 784.469 552.064 788.224C552.747 791.637 553.771 795.221 555.136 798.976V800H528C526.293 792.491 524.928 785.152 523.904 777.984C523.221 770.816 522.88 763.136 522.88 754.944V647.424ZM522.88 483.584C522.88 477.44 521.856 473.173 519.808 470.784C518.101 468.053 515.2 466.688 511.104 466.688H499.328V605.44H511.104C515.2 605.44 518.101 604.416 519.808 602.368C521.856 599.979 522.88 595.541 522.88 589.056V483.584Z" fill="white"/>
<path d="M199.66 41.6V400H184.3V113.28V62.592H183.276L180.204 113.28L159.212 400H137.708L116.716 113.28L113.644 62.592H112.62V113.28V400H97.26V41.6H124.908L141.804 276.608L147.948 374.4H148.972L155.116 276.608L172.012 41.6H199.66ZM225.38 367.232V74.368C225.38 63.104 228.281 54.4 234.084 48.256C240.228 41.7707 248.249 38.528 258.148 38.528C268.047 38.528 275.897 41.7707 281.7 48.256C287.844 54.4 290.916 63.104 290.916 74.368V367.232C290.916 378.496 287.844 387.371 281.7 393.856C275.897 400 268.047 403.072 258.148 403.072C248.249 403.072 240.228 400 234.084 393.856C228.281 387.371 225.38 378.496 225.38 367.232ZM258.148 387.712C262.585 387.712 266.34 386.176 269.412 383.104C272.825 379.691 274.532 373.888 274.532 365.696V75.904C274.532 67.712 272.825 62.08 269.412 59.008C266.34 55.5946 262.585 53.888 258.148 53.888C253.369 53.888 249.444 55.5946 246.372 59.008C243.3 62.08 241.764 67.712 241.764 75.904V365.696C241.764 373.888 243.3 379.691 246.372 383.104C249.444 386.176 253.369 387.712 258.148 387.712ZM396.384 41.6V400H371.296L330.336 65.152H329.312L330.848 157.312L331.36 400H316V41.6H340.576L382.048 377.984H383.072L381.536 287.872L380.512 41.6H396.384ZM485.608 41.6V56.96H458.984V400H442.6V56.96H416.488V41.6H485.608ZM505.74 400V41.6H550.796V56.96H522.124V208.512H548.236V223.872H522.124V384.64H553.356V400H505.74Z" fill="white"/>
</svg>
