<svg width="1194" height="892" viewBox="0 0 1194 892" fill="none" xmlns="http://www.w3.org/2000/svg">
<path d="M1186.39 201.689L1017.46 244.39L1167.25 155.346C1161.45 144.865 1154.81 134.897 1147.44 125.538L1008.21 228.751L1111.97 89.8318C1102.62 82.3468 1092.65 75.6259 1082.15 69.7286L992.469 218.127L1035.78 50.294C1024.46 47.023 1012.76 44.6474 1000.76 43.2388L974.31 214.175L950.849 43C938.66 44.3251 926.769 46.6291 915.258 49.8642L956.58 218.879L869.016 68.7975C858.209 74.7425 847.961 81.5709 838.358 89.1872L940.971 228.143L803.411 123.902C795.737 133.44 788.838 143.635 782.809 154.391L931.558 243.686L763.447 200.65C760.206 211.848 757.835 223.415 756.393 235.27L927.626 261.867L756 285.492C757.287 297.74 759.575 309.678 762.792 321.245L931.13 279.869L781.701 367.85C787.563 378.558 794.272 388.741 801.754 398.28L941.567 295.281L974.763 270.474L1007.37 294.911L1146.32 400.082C1153.99 390.508 1160.89 380.277 1166.91 369.498L1018.22 280.346L1186.01 323.812C1189.4 312.113 1191.86 300.008 1193.29 287.593L1020.95 262.38L1193.37 237.371C1192.01 225.146 1189.67 213.22 1186.39 201.677V201.689Z" fill="#FF5532"/>
<path d="M59.54 481.536C59.54 475.392 58.516 470.955 56.468 468.224C54.7613 465.152 51.86 463.616 47.764 463.616C43.668 463.616 40.596 465.152 38.548 468.224C36.8413 470.955 35.988 475.392 35.988 481.536V760.064C35.988 766.549 36.8413 771.157 38.548 773.888C40.596 776.619 43.668 777.984 47.764 777.984C51.86 777.984 54.7613 776.619 56.468 773.888C58.516 771.157 59.54 766.549 59.54 760.064V648.448H86.676V763.648C86.676 775.936 83.2626 785.664 76.436 792.832C69.6093 799.659 60.2226 803.072 48.276 803.072C36.3293 803.072 26.772 799.659 19.604 792.832C12.436 785.664 8.85197 775.936 8.85197 763.648V477.952C8.85197 465.664 12.436 456.107 19.604 449.28C26.772 442.112 36.3293 438.528 48.276 438.528C60.2226 438.528 69.6093 442.112 76.436 449.28C83.2626 456.107 86.676 465.664 86.676 477.952V577.28H59.54V481.536ZM107.972 441.6H135.108V774.912H163.268V800H107.972V441.6ZM172.924 800L195.964 441.6H232.316L258.428 800H229.756L224.636 704.256H203.644L198.012 800H172.924ZM204.668 678.656H223.1L217.468 559.872L214.396 468.224H213.372L210.3 559.872L204.668 678.656ZM348.512 689.408V763.648C348.512 775.936 344.928 785.664 337.76 792.832C330.592 799.659 321.035 803.072 309.088 803.072C297.141 803.072 287.755 799.659 280.928 792.832C274.101 785.664 270.688 775.936 270.688 763.648V674.048H297.824V760.064C297.824 766.549 298.677 771.157 300.384 773.888C302.432 776.619 305.504 777.984 309.6 777.984C313.355 777.984 316.256 776.619 318.304 773.888C320.352 771.157 321.376 766.549 321.376 760.064V689.92C321.376 674.901 318.987 661.931 314.208 651.008C309.429 640.085 304.651 630.187 299.872 621.312L294.752 612.608C292.021 608.171 289.12 603.221 286.048 597.76C283.317 592.299 280.757 586.496 278.368 580.352C276.32 573.867 274.443 566.699 272.736 558.848C271.371 550.997 270.688 542.464 270.688 533.248V477.952C270.688 465.664 274.101 456.107 280.928 449.28C288.096 442.112 297.653 438.528 309.6 438.528C321.547 438.528 330.933 442.112 337.76 449.28C344.928 456.107 348.512 465.664 348.512 477.952V551.68H321.376V481.536C321.376 475.051 320.352 470.443 318.304 467.712C316.256 464.981 313.355 463.616 309.6 463.616C305.504 463.616 302.432 464.981 300.384 467.712C298.677 470.443 297.824 475.051 297.824 481.536V532.736C297.824 548.437 300.213 561.749 304.992 572.672C309.771 583.595 314.549 593.323 319.328 601.856L324.448 610.56C326.837 614.997 329.397 619.947 332.128 625.408C335.2 630.869 337.931 636.843 340.32 643.328C342.709 649.813 344.587 656.811 345.952 664.32C347.659 671.829 348.512 680.192 348.512 689.408ZM445.132 689.408V763.648C445.132 775.936 441.548 785.664 434.38 792.832C427.212 799.659 417.655 803.072 405.708 803.072C393.761 803.072 384.375 799.659 377.548 792.832C370.721 785.664 367.308 775.936 367.308 763.648V674.048H394.444V760.064C394.444 766.549 395.297 771.157 397.004 773.888C399.052 776.619 402.124 777.984 406.22 777.984C409.975 777.984 412.876 776.619 414.924 773.888C416.972 771.157 417.996 766.549 417.996 760.064V689.92C417.996 674.901 415.607 661.931 410.828 651.008C406.049 640.085 401.271 630.187 396.492 621.312L391.372 612.608C388.641 608.171 385.74 603.221 382.668 597.76C379.937 592.299 377.377 586.496 374.988 580.352C372.94 573.867 371.063 566.699 369.356 558.848C367.991 550.997 367.308 542.464 367.308 533.248V477.952C367.308 465.664 370.721 456.107 377.548 449.28C384.716 442.112 394.273 438.528 406.22 438.528C418.167 438.528 427.553 442.112 434.38 449.28C441.548 456.107 445.132 465.664 445.132 477.952V551.68H417.996V481.536C417.996 475.051 416.972 470.443 414.924 467.712C412.876 464.981 409.975 463.616 406.22 463.616C402.124 463.616 399.052 464.981 397.004 467.712C395.297 470.443 394.444 475.051 394.444 481.536V532.736C394.444 548.437 396.833 561.749 401.612 572.672C406.391 583.595 411.169 593.323 415.948 601.856L421.068 610.56C423.457 614.997 426.017 619.947 428.748 625.408C431.82 630.869 434.551 636.843 436.94 643.328C439.329 649.813 441.207 656.811 442.572 664.32C444.279 671.829 445.132 680.192 445.132 689.408ZM492.088 441.6V800H464.952V441.6H492.088ZM564.26 481.536C564.26 475.392 563.236 470.955 561.188 468.224C559.481 465.152 556.58 463.616 552.484 463.616C548.388 463.616 545.316 465.152 543.268 468.224C541.561 470.955 540.708 475.392 540.708 481.536V760.064C540.708 766.549 541.561 771.157 543.268 773.888C545.316 776.619 548.388 777.984 552.484 777.984C556.58 777.984 559.481 776.619 561.188 773.888C563.236 771.157 564.26 766.549 564.26 760.064V648.448H591.396V763.648C591.396 775.936 587.983 785.664 581.156 792.832C574.329 799.659 564.943 803.072 552.996 803.072C541.049 803.072 531.492 799.659 524.324 792.832C517.156 785.664 513.572 775.936 513.572 763.648V477.952C513.572 465.664 517.156 456.107 524.324 449.28C531.492 442.112 541.049 438.528 552.996 438.528C564.943 438.528 574.329 442.112 581.156 449.28C587.983 456.107 591.396 465.664 591.396 477.952V577.28H564.26V481.536ZM689.492 689.408V763.648C689.492 775.936 685.908 785.664 678.74 792.832C671.572 799.659 662.015 803.072 650.068 803.072C638.121 803.072 628.735 799.659 621.908 792.832C615.081 785.664 611.668 775.936 611.668 763.648V674.048H638.804V760.064C638.804 766.549 639.657 771.157 641.364 773.888C643.412 776.619 646.484 777.984 650.58 777.984C654.335 777.984 657.236 776.619 659.284 773.888C661.332 771.157 662.356 766.549 662.356 760.064V689.92C662.356 674.901 659.967 661.931 655.188 651.008C650.409 640.085 645.631 630.187 640.852 621.312L635.732 612.608C633.001 608.171 630.1 603.221 627.028 597.76C624.297 592.299 621.737 586.496 619.348 580.352C617.3 573.867 615.423 566.699 613.716 558.848C612.351 550.997 611.668 542.464 611.668 533.248V477.952C611.668 465.664 615.081 456.107 621.908 449.28C629.076 442.112 638.633 438.528 650.58 438.528C662.527 438.528 671.913 442.112 678.74 449.28C685.908 456.107 689.492 465.664 689.492 477.952V551.68H662.356V481.536C662.356 475.051 661.332 470.443 659.284 467.712C657.236 464.981 654.335 463.616 650.58 463.616C646.484 463.616 643.412 464.981 641.364 467.712C639.657 470.443 638.804 475.051 638.804 481.536V532.736C638.804 548.437 641.193 561.749 645.972 572.672C650.751 583.595 655.529 593.323 660.308 601.856L665.428 610.56C667.817 614.997 670.377 619.947 673.108 625.408C676.18 630.869 678.911 636.843 681.3 643.328C683.689 649.813 685.567 656.811 686.932 664.32C688.639 671.829 689.492 680.192 689.492 689.408Z" fill="white"/>
<path d="M337.66 41.6V400H322.3V113.28V62.592H321.276L318.204 113.28L297.212 400H275.708L254.716 113.28L251.644 62.592H250.62V113.28V400H235.26V41.6H262.908L279.804 276.608L285.948 374.4H286.972L293.116 276.608L310.012 41.6H337.66ZM363.38 367.232V74.368C363.38 63.104 366.281 54.4 372.084 48.256C378.228 41.7707 386.249 38.528 396.148 38.528C406.047 38.528 413.897 41.7707 419.7 48.256C425.844 54.4 428.916 63.104 428.916 74.368V367.232C428.916 378.496 425.844 387.371 419.7 393.856C413.897 400 406.047 403.072 396.148 403.072C386.249 403.072 378.228 400 372.084 393.856C366.281 387.371 363.38 378.496 363.38 367.232ZM396.148 387.712C400.585 387.712 404.34 386.176 407.412 383.104C410.825 379.691 412.532 373.888 412.532 365.696V75.904C412.532 67.712 410.825 62.08 407.412 59.008C404.34 55.5946 400.585 53.888 396.148 53.888C391.369 53.888 387.444 55.5946 384.372 59.008C381.3 62.08 379.764 67.712 379.764 75.904V365.696C379.764 373.888 381.3 379.691 384.372 383.104C387.444 386.176 391.369 387.712 396.148 387.712ZM534.384 41.6V400H509.296L468.336 65.152H467.312L468.848 157.312L469.36 400H454V41.6H478.576L520.048 377.984H521.072L519.536 287.872L518.512 41.6H534.384ZM623.608 41.6V56.96H596.984V400H580.6V56.96H554.488V41.6H623.608ZM643.74 400V41.6H688.796V56.96H660.124V208.512H686.236V223.872H660.124V384.64H691.356V400H643.74Z" fill="white"/>
</svg>
