<svg width="514" height="420" viewBox="0 0 514 420" fill="none" xmlns="http://www.w3.org/2000/svg">
<path d="M504.826 186.684L307.067 236.671L482.425 132.434C475.632 120.164 467.863 108.495 459.229 97.539L296.244 218.364L417.705 55.7406C406.77 46.9785 395.095 39.1107 382.807 32.2072L277.818 205.927L328.52 9.4564C315.269 5.62733 301.572 2.84636 287.526 1.19735L256.561 201.301L229.096 0.917854C214.827 2.46905 200.907 5.16616 187.433 8.95331L235.806 206.807L133.3 31.1172C120.648 38.0766 108.653 46.0701 97.4106 54.986L217.533 217.652L56.5003 95.6244C47.5176 106.79 39.4415 118.725 32.3837 131.316L206.514 235.847L9.71768 185.468C5.92375 198.576 3.14804 212.118 1.46029 225.994L201.911 257.13L1 284.786C2.50642 299.124 5.18449 313.099 8.95053 326.64L206.012 278.204L31.0865 381.198C37.949 393.733 45.8019 405.653 54.5614 416.819L218.231 296.245L257.091 267.206L295.267 295.812L457.918 418.929C466.901 407.722 474.977 395.745 482.021 383.126L307.96 278.763L504.38 329.645C508.355 315.95 511.229 301.779 512.902 287.246L311.154 257.731L513 228.454C511.41 214.144 508.662 200.183 504.826 186.67V186.684Z" fill="#FF5532" stroke="#FF5532"/>
</svg>
