<svg width="256" height="256" viewBox="0 0 256 256" fill="none" xmlns="http://www.w3.org/2000/svg">
<g clip-path="url(#clip0_73_2)">
<path d="M251.906 92.8803L153.03 117.873L240.706 65.7562C237.31 59.6215 233.425 53.7872 229.108 48.3092L147.618 108.72L208.347 27.4106C202.879 23.0297 197.042 19.0959 190.898 15.6443L138.405 102.502L163.755 4.26916C157.13 2.35467 150.282 0.964228 143.259 0.139743L127.777 100.189L114.045 0C106.911 0.775575 99.9507 2.1241 93.2139 4.01762L117.4 102.942L66.148 15.0993C59.8226 18.5789 53.825 22.5755 48.204 27.0333L108.264 108.364L27.7494 47.352C23.2581 52.9347 19.2202 58.9018 15.6914 65.1972L102.754 117.461L4.35872 92.2725C2.46181 98.8264 1.07399 105.597 0.230141 112.535L100.453 128.103L0 141.93C0.753187 149.099 2.09219 156.086 3.97515 162.857L102.503 138.639L15.0428 190.135C18.474 196.402 22.4003 202.362 26.78 207.945L108.612 147.66L128.042 133.14L147.13 147.443L228.453 209C232.944 203.396 236.982 197.408 240.504 191.099L153.476 138.919L251.683 164.359C253.671 157.512 255.107 150.427 255.944 143.16L155.073 128.403L255.993 113.765C255.198 106.61 253.824 99.6299 251.906 92.8734V92.8803Z" fill="#FF5532" stroke="#FF5532"/>
</g>
<defs>
<clipPath id="clip0_73_2">
<rect width="256" height="256" fill="white"/>
</clipPath>
</defs>
</svg>
