<svg width="1324" height="438" viewBox="0 0 1324 438" fill="none" xmlns="http://www.w3.org/2000/svg">
<path d="M66.2635 322.384V401.232C66.2635 412.496 63.1915 421.371 57.0475 427.856C50.9035 434 42.8822 437.072 32.9835 437.072C23.0849 437.072 15.2342 434 9.43154 427.856C3.62887 421.371 0.727539 412.496 0.727539 401.232V308.048H17.1115V399.696C17.1115 407.888 18.6475 413.691 21.7195 417.104C24.7915 420.176 28.7169 421.712 33.4955 421.712C37.9329 421.712 41.6875 420.176 44.7595 417.104C48.1729 413.691 49.8795 407.888 49.8795 399.696V323.92C49.8795 307.536 47.3195 293.371 42.1995 281.424C37.4209 269.477 32.6422 258.896 27.8635 249.68L23.2555 240.464C20.5249 235.685 17.7942 230.565 15.0635 225.104C12.6742 219.643 10.2849 213.84 7.89554 207.696C5.84754 201.211 4.14087 194.213 2.77554 186.704C1.41021 178.853 0.727539 170.491 0.727539 161.616V108.368C0.727539 97.104 3.62887 88.4 9.43154 82.256C15.5755 75.7706 23.5969 72.528 33.4955 72.528C43.3942 72.528 51.2449 75.7706 57.0475 82.256C63.1915 88.4 66.2635 97.104 66.2635 108.368V185.68H49.8795V109.904C49.8795 101.712 48.1729 96.08 44.7595 93.008C41.6875 89.5946 37.9329 87.8879 33.4955 87.8879C28.7169 87.8879 24.7915 89.5946 21.7195 93.008C18.6475 96.08 17.1115 101.712 17.1115 109.904V160.08C17.1115 177.147 19.5009 191.653 24.2795 203.6C29.0582 215.205 33.8369 225.616 38.6155 234.832L43.7355 243.536C46.1249 248.315 48.6849 253.435 51.4155 258.896C54.1462 264.357 56.5355 270.331 58.5835 276.816C60.6315 283.301 62.3382 290.299 63.7035 297.808C65.4102 304.976 66.2635 313.168 66.2635 322.384Z" fill="white"/>
<path d="M150.348 75.5999V90.96H123.724V434H107.34V90.96H81.2275V75.5999H150.348Z" fill="white"/>
<path d="M236.016 75.5999V401.232C236.016 412.496 232.944 421.371 226.8 427.856C220.997 434 213.146 437.072 203.248 437.072C193.349 437.072 185.328 434 179.184 427.856C173.381 421.371 170.48 412.496 170.48 401.232V75.5999H186.864V399.696C186.864 407.888 188.4 413.691 191.472 417.104C194.544 420.176 198.469 421.712 203.248 421.712C207.685 421.712 211.44 420.176 214.512 417.104C217.925 413.691 219.632 407.888 219.632 399.696V75.5999H236.016Z" fill="white"/>
<path d="M326.636 111.44V398.16C326.636 409.424 323.905 418.299 318.444 424.784C312.982 430.928 304.79 434 293.868 434H261.1V75.5999H293.868C304.79 75.5999 312.982 78.8426 318.444 85.3279C323.905 91.4719 326.636 100.176 326.636 111.44ZM310.252 112.464C310.252 104.613 308.545 99.152 305.132 96.08C302.06 92.6666 298.305 90.96 293.868 90.96H277.484V418.64H293.868C298.305 418.64 302.06 417.104 305.132 414.032C308.545 410.96 310.252 405.328 310.252 397.136V112.464Z" fill="white"/>
<path d="M368.104 75.5999V434H351.72V75.5999H368.104Z" fill="white"/>
<path d="M393.34 401.232V108.368C393.34 97.104 396.241 88.4 402.044 82.256C408.188 75.7706 416.209 72.528 426.108 72.528C436.006 72.528 443.857 75.7706 449.66 82.256C455.804 88.4 458.876 97.104 458.876 108.368V401.232C458.876 412.496 455.804 421.371 449.66 427.856C443.857 434 436.006 437.072 426.108 437.072C416.209 437.072 408.188 434 402.044 427.856C396.241 421.371 393.34 412.496 393.34 401.232ZM426.108 421.712C430.545 421.712 434.3 420.176 437.372 417.104C440.785 413.691 442.492 407.888 442.492 399.696V109.904C442.492 101.712 440.785 96.08 437.372 93.008C434.3 89.5946 430.545 87.8879 426.108 87.8879C421.329 87.8879 417.404 89.5946 414.332 93.008C411.26 96.08 409.724 101.712 409.724 109.904V399.696C409.724 407.888 411.26 413.691 414.332 417.104C417.404 420.176 421.329 421.712 426.108 421.712Z" fill="white"/>
<path d="M579.232 323.408V397.648C579.232 409.936 575.648 419.664 568.48 426.832C561.312 433.659 551.754 437.072 539.808 437.072C527.861 437.072 518.474 433.659 511.648 426.832C504.821 419.664 501.408 409.936 501.408 397.648V308.048H528.544V394.064C528.544 400.549 529.397 405.157 531.104 407.888C533.152 410.619 536.224 411.984 540.32 411.984C544.074 411.984 546.976 410.619 549.024 407.888C551.072 405.157 552.096 400.549 552.096 394.064V323.92C552.096 308.901 549.706 295.931 544.928 285.008C540.149 274.085 535.37 264.187 530.592 255.312L525.472 246.608C522.741 242.171 519.84 237.221 516.768 231.76C514.037 226.299 511.477 220.496 509.088 214.352C507.04 207.867 505.162 200.699 503.456 192.848C502.09 184.997 501.408 176.464 501.408 167.248V111.952C501.408 99.664 504.821 90.1066 511.648 83.2799C518.816 76.1119 528.373 72.528 540.32 72.528C552.266 72.528 561.653 76.1119 568.48 83.2799C575.648 90.1066 579.232 99.664 579.232 111.952V185.68H552.096V115.536C552.096 109.051 551.072 104.443 549.024 101.712C546.976 98.9813 544.074 97.616 540.32 97.616C536.224 97.616 533.152 98.9813 531.104 101.712C529.397 104.443 528.544 109.051 528.544 115.536V166.736C528.544 182.437 530.933 195.749 535.712 206.672C540.49 217.595 545.269 227.323 550.048 235.856L555.168 244.56C557.557 248.997 560.117 253.947 562.848 259.408C565.92 264.869 568.65 270.843 571.04 277.328C573.429 283.813 575.306 290.811 576.672 298.32C578.378 305.829 579.232 314.192 579.232 323.408Z" fill="white"/>
<path d="M676.876 75.5999V397.648C676.876 409.936 673.462 419.664 666.635 426.832C659.809 433.659 650.422 437.072 638.476 437.072C626.529 437.072 616.972 433.659 609.804 426.832C602.636 419.664 599.052 409.936 599.052 397.648V75.5999H626.188V394.064C626.188 400.549 627.041 405.157 628.747 407.888C630.795 410.619 633.868 411.984 637.964 411.984C642.059 411.984 644.961 410.619 646.668 407.888C648.716 405.157 649.74 400.549 649.74 394.064V75.5999H676.876Z" fill="white"/>
<path d="M824.635 75.5999V434H799.036V178L800.06 107.856H799.036L777.531 434H745.276L727.867 178L723.772 107.856H722.747L723.772 178V434H698.172V75.5999H742.203L757.564 302.928L760.635 385.872H761.66L765.244 302.928L780.092 75.5999H824.635Z" fill="white"/>
<path d="M839.124 434L862.164 75.5999H898.516L924.628 434H895.956L890.836 338.256H869.844L864.211 434H839.124ZM870.867 312.656H889.299L883.668 193.872L880.596 102.224H879.572L876.5 193.872L870.867 312.656Z" fill="white"/>
<path d="M977.336 245.072H1015.74V434H988.599V414.544H987.576C985.869 421.712 982.968 427.344 978.872 431.44C974.776 435.195 969.997 437.072 964.536 437.072C956.344 437.072 949.858 433.659 945.08 426.832C940.301 419.664 937.911 409.936 937.911 397.648V111.952C937.911 99.664 941.496 90.1066 948.664 83.2799C955.832 76.1119 965.389 72.528 977.336 72.528C989.282 72.528 998.669 76.1119 1005.5 83.2799C1012.32 90.1066 1015.74 99.664 1015.74 111.952V211.28H988.599V115.536C988.599 109.392 987.576 104.955 985.528 102.224C983.821 99.152 980.919 97.616 976.823 97.616C972.727 97.616 969.655 99.152 967.607 102.224C965.901 104.955 965.047 109.392 965.047 115.536V394.064C965.047 400.549 965.901 405.157 967.607 407.888C969.655 410.619 972.727 411.984 976.823 411.984C980.919 411.984 983.821 410.448 985.528 407.376C987.576 404.304 988.599 399.355 988.599 392.528V270.16H977.336V245.072Z" fill="white"/>
<path d="M1029.36 434L1052.4 75.5999H1088.76L1114.87 434H1086.2L1081.08 338.256H1060.08L1054.45 434H1029.36ZM1061.11 312.656H1079.54L1073.91 193.872L1070.84 102.224H1069.81L1066.74 193.872L1061.11 312.656ZM1079.03 59.2159H1061.62L1068.79 0.335938H1093.36L1079.03 59.2159Z" fill="white"/>
<path d="M1223.88 75.5999V434H1186.51L1149.13 114H1148.11L1152.2 229.2L1154.25 434H1128.65V75.5999H1166.54L1203.4 394.576H1204.43L1200.84 284.496L1198.8 75.5999H1223.88Z" fill="white"/>
<path d="M1285.2 245.072H1323.6V434H1296.46V414.544H1295.44C1293.73 421.712 1290.83 427.344 1286.73 431.44C1282.64 435.195 1277.86 437.072 1272.4 437.072C1264.2 437.072 1257.72 433.659 1252.94 426.832C1248.16 419.664 1245.77 409.936 1245.77 397.648V111.952C1245.77 99.664 1249.36 90.1066 1256.52 83.2799C1263.69 76.1119 1273.25 72.528 1285.2 72.528C1297.14 72.528 1306.53 76.1119 1313.36 83.2799C1320.18 90.1066 1323.6 99.664 1323.6 111.952V211.28H1296.46V115.536C1296.46 109.392 1295.44 104.955 1293.39 102.224C1291.68 99.152 1288.78 97.616 1284.68 97.616C1280.59 97.616 1277.52 99.152 1275.47 102.224C1273.76 104.955 1272.91 109.392 1272.91 115.536V394.064C1272.91 400.549 1273.76 405.157 1275.47 407.888C1277.52 410.619 1280.59 411.984 1284.68 411.984C1288.78 411.984 1291.68 410.448 1293.39 407.376C1295.44 404.304 1296.46 399.355 1296.46 392.528V270.16H1285.2V245.072Z" fill="white"/>
</svg>
